<svg xmlns="http://www.w3.org/2000/svg" xmlns:xlink="http://www.w3.org/1999/xlink" version="1.1" width="256" height="256" viewBox="0 0 256 256" xml:space="preserve">

<defs>
</defs>
<g style="stroke: none; stroke-width: 0; stroke-dasharray: none; stroke-linecap: butt; stroke-linejoin: miter; stroke-miterlimit: 10; fill: none; fill-rule: nonzero; opacity: 1;" transform="translate(1.4065934065934016 1.4065934065934016) scale(2.81 2.81)" >
	<path d="M 84.2 30.8 h -0.3 c 3.2 0 5.8 2.6 5.8 5.8 v 1.2 c 0 3.2 -2.6 5.8 -5.8 5.8 h -0.7 c 3.2 0 5.8 2.6 5.8 5.8 v 1.2 c 0 3.2 -2.6 5.8 -5.8 5.8 l -21.2 0 C 64.6 81 59.7 87 49.8 84.7 c -0.7 -13.9 -9.5 -32.9 -18.4 -33.4 v 2.4 c 0 1.7 -1.6 3.1 -3.5 3.1 H 3.5 c -1.9 0 -3.5 -1.4 -3.5 -3.1 V 8 c 0 -1.7 1.6 -3.1 3.5 -3.1 h 24.4 c 1.9 0 3.5 1.4 3.5 3.1 v 2.8 c 3.2 -3.5 11 -5.7 18.4 -5.5 h 29.6 c 3.2 0 5.8 2.6 5.8 5.8 v 1.2 c 0 3.2 -2.6 5.8 -5.8 5.8 h 4.8 c 3.2 0 5.8 2.6 5.8 5.8 V 25 C 90 28.2 87.4 30.8 84.2 30.8 z" style="stroke: none; stroke-width: 1; stroke-dasharray: none; stroke-linecap: butt; stroke-linejoin: miter; stroke-miterlimit: 10; fill: rgb(0,0,0); fill-rule: nonzero; opacity: 1;" transform=" matrix(1 0 0 1 0 0) " stroke-linecap="round" />
</g>
</svg>